<?xml version="1.0" encoding="UTF-8" standalone="no"?>
<svg width="239px" height="34px" viewBox="0 0 239 34" version="1.1" xmlns="http://www.w3.org/2000/svg" xmlns:xlink="http://www.w3.org/1999/xlink">
    <!-- Generator: Sketch 44 (41411) - http://www.bohemiancoding.com/sketch -->
    <title>Your Hebamme</title>
    <desc>Created with Sketch.</desc>
    <defs></defs>
    <g id="styleguide" stroke="none" stroke-width="1" fill="none" fill-rule="evenodd">
        <g id="style-guide" transform="translate(-704.000000, -484.000000)" fill="#FFFFFF">
            <path d="M738.752,484.832 L724,508.128 C723.167996,509.344006 722.261338,510.490661 721.28,511.568 C720.298662,512.645339 719.232006,513.589329 718.08,514.4 C716.927994,515.210671 715.696007,515.850664 714.384,516.32 C713.071993,516.789336 711.690674,517.024 710.24,517.024 C709.407996,517.024 708.613337,516.949334 707.856,516.8 C707.098663,516.650666 706.437336,516.400002 705.872,516.048 C705.306664,515.695998 704.853335,515.237336 704.512,514.672 C704.170665,514.106664 704,513.408004 704,512.576 C704,512.106664 704.095999,511.653336 704.288,511.216 C704.480001,510.778664 704.746665,510.389335 705.088,510.048 C705.429335,509.706665 705.813331,509.434668 706.24,509.232 C706.666669,509.029332 707.125331,508.928 707.616,508.928 C708.29867,508.928 708.927997,509.013332 709.504,509.184 C710.080003,509.354668 710.666664,509.589332 711.264,509.888 L711.232,510.144 C710.933332,510.037333 710.629335,509.936 710.32,509.84 C710.010665,509.744 709.696002,509.696 709.376,509.696 C708.927998,509.696 708.538668,509.791999 708.208,509.984 C707.877332,510.176001 707.600001,510.421332 707.376,510.72 C707.151999,511.018668 706.981334,511.365331 706.864,511.76 C706.746666,512.154669 706.688,512.554665 706.688,512.96 C706.688,513.408002 706.751999,513.850664 706.88,514.288 C707.008001,514.725336 707.215999,515.119998 707.504,515.472 C707.792001,515.824002 708.170664,516.106666 708.64,516.32 C709.109336,516.533334 709.674663,516.64 710.336,516.64 C711.402672,516.64 712.421328,516.400002 713.392,515.92 C714.362672,515.439998 715.306662,514.778671 716.224,513.936 C717.141338,513.093329 718.031996,512.106672 718.896,510.976 C719.760004,509.845328 720.618662,508.618673 721.472,507.296 L725.888,500.512 L725.824,500.448 C725.20533,501.216004 724.490671,502.010663 723.68,502.832 C722.869329,503.653337 722.000005,504.40533 721.072,505.088 C720.143995,505.77067 719.168005,506.330664 718.144,506.768 C717.119995,507.205336 716.074672,507.424 715.008,507.424 C714.32533,507.424 713.786669,507.237335 713.392,506.864 C712.997331,506.490665 712.8,505.96267 712.8,505.28 C712.8,504.554663 713.050664,503.674672 713.552,502.64 C714.053336,501.605328 714.671996,500.490673 715.408,499.296 C716.144004,498.101327 716.949329,496.874673 717.824,495.616 C718.698671,494.357327 719.503996,493.141339 720.24,491.968 C720.976004,490.794661 721.594664,489.712005 722.096,488.72 C722.597336,487.727995 722.848,486.912003 722.848,486.272 C722.848,485.013327 722.282672,484.384 721.152,484.384 C720.063995,484.384 718.981339,484.618664 717.904,485.088 C716.826661,485.557336 715.850671,486.181329 714.976,486.96 C714.101329,487.738671 713.392003,488.634662 712.848,489.648 C712.303997,490.661338 712.032,491.711995 712.032,492.8 C712.032,493.077335 712.069333,493.359999 712.144,493.648 C712.218667,493.936001 712.325333,494.191999 712.464,494.416 C712.602667,494.640001 712.783999,494.826666 713.008,494.976 C713.232001,495.125334 713.493332,495.2 713.792,495.2 C714.218669,495.2 714.613332,495.130667 714.976,494.992 C715.338668,494.853333 715.674665,494.672001 715.984,494.448 C716.293335,494.223999 716.586665,493.973335 716.864,493.696 C717.141335,493.418665 717.418665,493.130668 717.696,492.832 L717.92,492.992 C717.621332,493.333335 717.301335,493.669332 716.96,494 C716.618665,494.330668 716.250669,494.629332 715.856,494.896 C715.461331,495.162668 715.045336,495.375999 714.608,495.536 C714.170664,495.696001 713.696003,495.776 713.184,495.776 C712.330662,495.776 711.616003,495.552002 711.04,495.104 C710.463997,494.655998 710.176,493.962671 710.176,493.024 C710.176,491.914661 710.511997,490.821339 711.184,489.744 C711.856003,488.666661 712.741328,487.701338 713.84,486.848 C714.938672,485.994662 716.18666,485.306669 717.584,484.784 C718.98134,484.261331 720.415993,484 721.888,484 C722.314669,484 722.741331,484.042666 723.168,484.128 C723.594669,484.213334 723.983998,484.357332 724.336,484.56 C724.688002,484.762668 724.975999,485.029332 725.2,485.36 C725.424001,485.690668 725.536,486.111997 725.536,486.624 C725.536,487.37067 725.285336,488.271995 724.784,489.328 C724.282664,490.384005 723.664004,491.509327 722.928,492.704 C722.191996,493.898673 721.386671,495.125327 720.512,496.384 C719.637329,497.642673 718.832004,498.837328 718.096,499.968 C717.359996,501.098672 716.741336,502.138662 716.24,503.088 C715.738664,504.037338 715.488,504.799997 715.488,505.376 C715.488,506.229338 715.914662,506.656 716.768,506.656 C717.408003,506.656 718.138663,506.437336 718.96,506 C719.781337,505.562664 720.607996,505.01867 721.44,504.368 C722.272004,503.71733 723.066663,503.002671 723.824,502.224 C724.581337,501.445329 725.215997,500.71467 725.728,500.032 C726.240003,499.34933 726.80533,498.544005 727.424,497.616 C728.04267,496.687995 728.671997,495.722672 729.312,494.72 C729.952003,493.717328 730.58133,492.709338 731.2,491.696 C731.81867,490.682662 732.394664,489.738671 732.928,488.864 C733.461336,487.989329 733.925331,487.21067 734.32,486.528 C734.714669,485.84533 735.007999,485.333335 735.2,484.992 L738.752,484.832 Z M750.976,498.816 C750.549331,499.370669 750.04267,499.871998 749.456,500.32 C748.86933,500.768002 748.224004,500.992 747.52,500.992 C747.029331,500.992 746.602668,500.885334 746.24,500.672 C745.877332,500.458666 745.546668,500.160002 745.248,499.776 C744.991999,500.842672 744.57067,501.850662 743.984,502.8 C743.39733,503.749338 742.688004,504.58133 741.856,505.296 C741.023996,506.01067 740.096005,506.575998 739.072,506.992 C738.047995,507.408002 736.981339,507.616 735.872,507.616 C734.698661,507.616 733.760004,507.280003 733.056,506.608 C732.351996,505.935997 732,505.013339 732,503.84 C732,502.709328 732.287997,501.626672 732.864,500.592 C733.440003,499.557328 734.186662,498.650671 735.104,497.872 C736.021338,497.093329 737.034661,496.474669 738.144,496.016 C739.253339,495.557331 740.341328,495.328 741.408,495.328 C742.560006,495.328 743.466663,495.63733 744.128,496.256 C744.789337,496.87467 745.194666,497.621329 745.344,498.496 C745.450667,499.136003 745.690665,499.647998 746.064,500.032 C746.437335,500.416002 746.922664,500.608 747.52,500.608 C748.096003,500.608 748.639997,500.437335 749.152,500.096 C749.664003,499.754665 750.207997,499.24267 750.784,498.56 L750.976,498.816 Z M736.096,507.232 C736.629336,507.232 737.162664,507.050668 737.696,506.688 C738.229336,506.325332 738.741331,505.856003 739.232,505.28 C739.722669,504.703997 740.175998,504.053337 740.592,503.328 C741.008002,502.602663 741.370665,501.877337 741.68,501.152 C741.989335,500.426663 742.229332,499.733337 742.4,499.072 C742.570668,498.410663 742.656,497.856002 742.656,497.408 C742.656,496.874664 742.544001,496.458668 742.32,496.16 C742.095999,495.861332 741.738669,495.712 741.248,495.712 C740.714664,495.712 740.181336,495.893332 739.648,496.256 C739.114664,496.618668 738.602669,497.087997 738.112,497.664 C737.621331,498.240003 737.168002,498.890663 736.752,499.616 C736.335998,500.341337 735.973335,501.066663 735.664,501.792 C735.354665,502.517337 735.114668,503.210663 734.944,503.872 C734.773332,504.533337 734.688,505.087998 734.688,505.536 C734.688,506.069336 734.799999,506.485332 735.024,506.784 C735.248001,507.082668 735.605331,507.232 736.096,507.232 Z M764.304,495.712 C763.471996,497.098674 762.69867,498.335995 761.984,499.424 C761.26933,500.512005 760.656003,501.477329 760.144,502.32 C759.631997,503.162671 759.232001,503.89333 758.944,504.512 C758.655999,505.13067 758.512,505.674664 758.512,506.144 C758.512,506.613336 758.714665,506.848 759.12,506.848 C759.376001,506.848 759.685332,506.757334 760.048,506.576 C760.410668,506.394666 760.794665,506.160001 761.2,505.872 C761.605335,505.583999 762.021331,505.248002 762.448,504.864 C762.874669,504.479998 763.279998,504.096002 763.664,503.712 C764.133336,503.221331 764.597331,502.725336 765.056,502.224 C765.514669,501.722664 765.941331,501.237336 766.336,500.768 C766.730669,500.298664 767.087998,499.866669 767.408,499.472 C767.728002,499.077331 767.994666,498.741335 768.208,498.464 L768.464,498.656 C767.951997,499.33867 767.301337,500.154662 766.512,501.104 C765.722663,502.053338 764.880004,502.986662 763.984,503.904 C762.895995,505.013339 761.893338,505.87733 760.976,506.496 C760.058662,507.11467 759.152004,507.424 758.256,507.424 C757.615997,507.424 757.104002,507.232002 756.72,506.848 C756.335998,506.463998 756.144,505.984003 756.144,505.408 C756.144,505.002665 756.181333,504.640002 756.256,504.32 C756.330667,503.999998 756.421333,503.754668 756.528,503.584 L756.464,503.52 C756.079998,503.925335 755.664002,504.357331 755.216,504.816 C754.767998,505.274669 754.288003,505.695998 753.776,506.08 C753.263997,506.464002 752.71467,506.783999 752.128,507.04 C751.54133,507.296001 750.90667,507.424 750.224,507.424 C749.562663,507.424 749.061335,507.216002 748.72,506.8 C748.378665,506.383998 748.208,505.898669 748.208,505.344 C748.208,504.533329 748.645329,503.360008 749.52,501.824 C750.394671,500.287992 751.578659,498.293346 753.072,495.84 L756.464,495.712 C754.778658,498.293346 753.408005,500.410658 752.352,502.064 C751.295995,503.717342 750.768,504.949329 750.768,505.76 C750.768,506.016001 750.837333,506.229332 750.976,506.4 C751.114667,506.570668 751.301332,506.656 751.536,506.656 C751.941335,506.656 752.426664,506.485335 752.992,506.144 C753.557336,505.802665 754.14933,505.344003 754.768,504.768 C755.38667,504.191997 755.999997,503.53067 756.608,502.784 C757.216003,502.03733 757.765331,501.258671 758.256,500.448 L761.008,495.968 L764.304,495.712 Z M764.032,507.104 C765.120005,505.226657 766.223994,503.360009 767.344,501.504 C768.464006,499.647991 769.578661,497.76001 770.688,495.84 L774.336,495.712 L770.112,501.664 L770.176,501.728 C770.986671,500.725328 771.706664,499.920003 772.336,499.312 C772.965336,498.703997 773.514664,498.208002 773.984,497.824 C774.453336,497.439998 774.847998,497.146668 775.168,496.944 C775.488002,496.741332 775.722666,496.565334 775.872,496.416 C776.106668,496.181332 776.325332,495.994667 776.528,495.856 C776.730668,495.717333 776.970665,495.610667 777.248,495.536 C777.525335,495.461333 777.861331,495.413333 778.256,495.392 C778.650669,495.370667 779.146664,495.349333 779.744,495.328 C779.338665,495.904003 778.965335,496.506664 778.624,497.136 C778.282665,497.765336 778.112,498.442663 778.112,499.168 C778.112,500.085338 778.570662,500.544 779.488,500.544 C779.786668,500.544 780.079999,500.480001 780.368,500.352 C780.656001,500.223999 780.927999,500.064001 781.184,499.872 C781.440001,499.679999 781.685332,499.472001 781.92,499.248 C782.154668,499.023999 782.367999,498.816001 782.56,498.624 L782.688,498.784 C782.090664,499.53067 781.386671,500.138664 780.576,500.608 C779.765329,501.077336 778.880005,501.312 777.92,501.312 C777.066662,501.312 776.394669,501.088002 775.904,500.64 C775.413331,500.191998 775.168,499.530671 775.168,498.656 C775.168,498.101331 775.327998,497.578669 775.648,497.088 L775.584,497.024 C774.687996,497.621336 773.834671,498.314663 773.024,499.104 C772.213329,499.893337 771.461337,500.725329 770.768,501.6 C770.074663,502.474671 769.43467,503.375995 768.848,504.304 C768.26133,505.232005 767.733336,506.133329 767.264,507.008 L764.032,507.104 Z M815.88,495.52 C816.648004,494.026659 817.597328,492.61334 818.728,491.28 C819.858672,489.94666 821.101327,488.778672 822.456,487.776 C823.810673,486.773328 825.255992,485.97867 826.792,485.392 C828.328008,484.80533 829.885325,484.512 831.464,484.512 C831.848002,484.512 832.258664,484.549333 832.696,484.624 C833.133336,484.698667 833.527998,484.821332 833.88,484.992 C834.232002,485.162668 834.525332,485.381332 834.76,485.648 C834.994668,485.914668 835.112,486.239998 835.112,486.624 C835.112,487.008002 834.978668,487.295999 834.712,487.488 C834.445332,487.680001 834.130668,487.776 833.768,487.776 C833.383998,487.776 833.074668,487.637335 832.84,487.36 C832.605332,487.082665 832.376001,486.773335 832.152,486.432 C831.927999,486.090665 831.677335,485.781335 831.4,485.504 C831.122665,485.226665 830.738669,485.088 830.248,485.088 C829.458663,485.088 828.717337,485.226665 828.024,485.504 C827.330663,485.781335 826.69067,486.127998 826.104,486.544 C825.51733,486.960002 824.973336,487.407998 824.472,487.888 C823.970664,488.368002 823.517335,488.821331 823.112,489.248 C822.322663,490.101338 821.533337,491.125327 820.744,492.32 C819.954663,493.514673 819.256003,494.77866 818.648,496.112 C818.039997,497.44534 817.544002,498.789327 817.16,500.144 C816.775998,501.498673 816.584,502.773327 816.584,503.968 C816.584,504.245335 816.610666,504.527999 816.664,504.816 C816.717334,505.104001 816.807999,505.365332 816.936,505.6 C817.064001,505.834668 817.234666,506.026666 817.448,506.176 C817.661334,506.325334 817.927998,506.4 818.248,506.4 C818.653335,506.4 819.101331,506.245335 819.592,505.936 C820.082669,505.626665 820.594664,505.221336 821.128,504.72 C821.661336,504.218664 822.199997,503.669336 822.744,503.072 C823.288003,502.474664 823.794664,501.88267 824.264,501.296 C824.733336,500.70933 825.159998,500.170669 825.544,499.68 C825.928002,499.189331 826.226666,498.805335 826.44,498.528 L826.728,498.752 C826.194664,499.43467 825.538671,500.282662 824.76,501.296 C823.981329,502.309338 823.133338,503.285329 822.216,504.224 C821.298662,505.162671 820.349338,505.962663 819.368,506.624 C818.386662,507.285337 817.426671,507.616 816.488,507.616 C815.911997,507.616 815.432002,507.509334 815.048,507.296 C814.663998,507.082666 814.360001,506.800002 814.136,506.448 C813.911999,506.095998 813.752,505.690669 813.656,505.232 C813.56,504.773331 813.512,504.288003 813.512,503.776 C813.512,502.431993 813.725331,501.072007 814.152,499.696 C814.578669,498.319993 815.079997,497.056006 815.656,495.904 L810.888,495.904 C810.119996,497.440008 809.277338,498.901326 808.36,500.288 C807.442662,501.674674 806.408006,502.895995 805.256,503.952 C804.103994,505.008005 802.797341,505.850664 801.336,506.48 C799.874659,507.109336 798.205343,507.424 796.328,507.424 C795.794664,507.424 795.197337,507.354667 794.536,507.216 C793.874663,507.077333 793.25067,506.853335 792.664,506.544 C792.07733,506.234665 791.592002,505.840002 791.208,505.36 C790.823998,504.879998 790.632,504.29867 790.632,503.616 C790.632,503.317332 790.669333,503.013335 790.744,502.704 C790.818667,502.394665 790.935999,502.117335 791.096,501.872 C791.256001,501.626665 791.458665,501.429334 791.704,501.28 C791.949335,501.130666 792.253332,501.056 792.616,501.056 C793.042669,501.056 793.405332,501.199999 793.704,501.488 C794.002668,501.776001 794.152,502.133331 794.152,502.56 C794.152,503.456004 793.746671,503.936 792.936,504 C792.936,505.045339 793.197331,505.813331 793.72,506.304 C794.242669,506.794669 795.005328,507.04 796.008,507.04 C797.202673,507.04 798.242662,506.853335 799.128,506.48 C800.013338,506.106665 800.893329,505.482671 801.768,504.608 C803.026673,503.349327 804.045329,502.096006 804.824,500.848 C805.602671,499.599994 806.306664,498.368006 806.936,497.152 C807.565336,495.935994 808.194664,494.752006 808.824,493.6 C809.453336,492.447994 810.237329,491.349339 811.176,490.304 C812.114671,489.258661 813.293326,488.266671 814.712,487.328 C816.130674,486.389329 817.938656,485.536004 820.136,484.768 L820.136,484.704 C818.941327,484.704 817.602674,484.752 816.12,484.848 C814.637326,484.944 813.128008,485.109332 811.592,485.344 C810.055992,485.578668 808.562674,485.898665 807.112,486.304 C805.661326,486.709335 804.370672,487.23733 803.24,487.888 C802.109328,488.53867 801.197337,489.311996 800.504,490.208 C799.810663,491.104004 799.464,492.17066 799.464,493.408 C799.464,494.304004 799.709331,495.04533 800.2,495.632 C800.690669,496.21867 801.373329,496.512 802.248,496.512 C802.86667,496.512 803.447997,496.394668 803.992,496.16 C804.536003,495.925332 805.015998,495.594669 805.432,495.168 C805.848002,494.741331 806.178665,494.240003 806.424,493.664 C806.669335,493.087997 806.792,492.45867 806.792,491.776 C806.792,491.434665 806.749334,491.098668 806.664,490.768 C806.578666,490.437332 806.482667,490.154668 806.376,489.92 L806.696,489.856 C806.824001,490.090668 806.936,490.389332 807.032,490.752 C807.128,491.114668 807.176,491.455998 807.176,491.776 C807.176,492.693338 806.994668,493.49333 806.632,494.176 C806.269332,494.85867 805.79467,495.429331 805.208,495.888 C804.62133,496.346669 803.944004,496.693332 803.176,496.928 C802.407996,497.162668 801.608004,497.28 800.776,497.28 C799.602661,497.28 798.64267,496.917337 797.896,496.192 C797.14933,495.466663 796.776,494.506673 796.776,493.312 C796.776,492.117327 797.111997,491.061338 797.784,490.144 C798.456003,489.226662 799.362661,488.437337 800.504,487.776 C801.645339,487.114663 802.951993,486.560002 804.424,486.112 C805.896007,485.663998 807.431992,485.306668 809.032,485.04 C810.632008,484.773332 812.237325,484.586667 813.848,484.48 C815.458675,484.373333 816.957326,484.32 818.344,484.32 C819.240004,484.32 819.975997,484.304 820.552,484.272 C821.128003,484.24 821.607998,484.202667 821.992,484.16 C822.376002,484.117333 822.690665,484.08 822.936,484.048 C823.181335,484.016 823.410666,484 823.624,484 C823.794668,484 823.928,484.032 824.024,484.096 C824.12,484.16 824.168,484.224 824.168,484.288 C824.168,484.458668 824.066668,484.581333 823.864,484.656 C823.661332,484.730667 823.208004,484.768 822.504,484.768 C822.269332,484.768 822.050668,484.757333 821.848,484.736 C821.645332,484.714667 821.416001,484.704 821.16,484.704 C819.85866,485.066668 818.717338,485.62133 817.736,486.368 C816.754662,487.11467 815.880004,487.973328 815.112,488.944 C814.343996,489.914672 813.640003,490.970661 813,492.112 C812.359997,493.253339 811.720003,494.389328 811.08,495.52 L815.88,495.52 Z M841.688,498.72 C841.026663,499.616004 840.317337,500.501329 839.56,501.376 C838.802663,502.250671 837.901339,503.167995 836.856,504.128 C835.383993,505.450673 833.970673,506.362664 832.616,506.864 C831.261327,507.365336 829.986673,507.616 828.792,507.616 C827.575994,507.616 826.616004,507.253337 825.912,506.528 C825.207996,505.802663 824.856,504.864006 824.856,503.712 C824.856,502.687995 825.16533,501.674672 825.784,500.672 C826.40267,499.669328 827.181329,498.773337 828.12,497.984 C829.058671,497.194663 830.087994,496.554669 831.208,496.064 C832.328006,495.573331 833.389328,495.328 834.392,495.328 C835.309338,495.328 836.023997,495.503998 836.536,495.856 C837.048003,496.208002 837.304,496.703997 837.304,497.344 C837.304,497.856003 837.128002,498.325331 836.776,498.752 C836.423998,499.178669 835.970669,499.562665 835.416,499.904 C834.861331,500.245335 834.237337,500.543999 833.544,500.8 C832.850663,501.056001 832.16267,501.279999 831.48,501.472 C830.79733,501.664001 830.157336,501.823999 829.56,501.952 C828.962664,502.080001 828.472002,502.186666 828.088,502.272 C827.981333,502.698669 827.928,503.082665 827.928,503.424 C827.928,504.341338 828.183997,505.087997 828.696,505.664 C829.208003,506.240003 829.922662,506.528 830.84,506.528 C831.736004,506.528 832.722661,506.261336 833.8,505.728 C834.877339,505.194664 835.959995,504.416005 837.048,503.392 C837.880004,502.602663 838.679996,501.776004 839.448,500.912 C840.216004,500.047996 840.887997,499.24267 841.464,498.496 L841.688,498.72 Z M834.744,496.544 C834.744,496.245332 834.664001,496.032001 834.504,495.904 C834.343999,495.775999 834.136001,495.712 833.88,495.712 C833.346664,495.712 832.77067,495.935998 832.152,496.384 C831.53333,496.832002 830.952003,497.38133 830.408,498.032 C829.863997,498.68267 829.384002,499.36533 828.968,500.08 C828.551998,500.79467 828.280001,501.418664 828.152,501.952 C829.026671,501.781332 829.858663,501.498669 830.648,501.104 C831.437337,500.709331 832.135997,500.261336 832.744,499.76 C833.352003,499.258664 833.837332,498.725336 834.2,498.16 C834.562668,497.594664 834.744,497.056003 834.744,496.544 Z M854.44,484.832 C852.903992,487.178678 851.522673,489.263991 850.296,491.088 C849.069327,492.912009 847.986671,494.511993 847.048,495.888 C846.109329,497.264007 845.309337,498.458662 844.648,499.472 C843.986663,500.485338 843.448002,501.370663 843.032,502.128 C842.615998,502.885337 842.312001,503.541331 842.12,504.096 C841.927999,504.650669 841.832,505.162664 841.832,505.632 C841.832,506.058669 841.949332,506.431998 842.184,506.752 C842.418668,507.072002 842.759998,507.232 843.208,507.232 C843.784003,507.232 844.354664,507.061335 844.92,506.72 C845.485336,506.378665 846.023997,505.936003 846.536,505.392 C847.048003,504.847997 847.522664,504.245337 847.96,503.584 C848.397336,502.922663 848.775998,502.26667 849.096,501.616 C849.416002,500.96533 849.666666,500.357336 849.848,499.792 C850.029334,499.226664 850.12,498.784002 850.12,498.464 C850.12,498.357333 850.104,498.266667 850.072,498.192 C850.04,498.117333 850.002667,498.032 849.96,497.936 C849.917333,497.84 849.88,497.717334 849.848,497.568 C849.816,497.418666 849.8,497.216001 849.8,496.96 C849.8,496.554665 849.933332,496.181335 850.2,495.84 C850.466668,495.498665 850.813331,495.328 851.24,495.328 C851.602668,495.328 851.901332,495.407999 852.136,495.568 C852.370668,495.728001 852.557333,495.935999 852.696,496.192 C852.834667,496.448001 852.930666,496.730665 852.984,497.04 C853.037334,497.349335 853.064,497.653332 853.064,497.952 C853.064,498.421336 853.000001,498.933331 852.872,499.488 C853.128001,499.744001 853.479998,499.983999 853.928,500.208 C854.376002,500.432001 854.845331,500.544 855.336,500.544 C856.061337,500.544 856.706664,500.373335 857.272,500.032 C857.837336,499.690665 858.333331,499.242669 858.76,498.688 L858.984,498.88 C858.557331,499.49867 858.01867,499.994665 857.368,500.368 C856.71733,500.741335 856.040004,500.928 855.336,500.928 C854.823997,500.928 854.360002,500.832001 853.944,500.64 C853.527998,500.447999 853.138668,500.202668 852.776,499.904 C852.455998,501.013339 851.976003,502.037329 851.336,502.976 C850.695997,503.914671 849.944004,504.72533 849.08,505.408 C848.215996,506.09067 847.261339,506.629331 846.216,507.024 C845.170661,507.418669 844.082672,507.616 842.952,507.616 C841.757327,507.616 840.86667,507.30667 840.28,506.688 C839.69333,506.06933 839.4,505.237339 839.4,504.192 C839.4,503.850665 839.458666,503.477335 839.576,503.072 C839.693334,502.666665 839.906665,502.165336 840.216,501.568 C840.525335,500.970664 840.946664,500.229338 841.48,499.344 C842.013336,498.458662 842.701329,497.36534 843.544,496.064 C844.386671,494.76266 845.405327,493.205342 846.6,491.392 C847.794673,489.578658 849.202659,487.445346 850.824,484.992 L854.44,484.832 Z M869.912,496.032 L873.24,495.84 C873.047999,496.224002 872.770668,496.687997 872.408,497.232 C872.045332,497.776003 871.650669,498.362664 871.224,498.992 C870.797331,499.621336 870.365336,500.271997 869.928,500.944 C869.490664,501.616003 869.090668,502.266664 868.728,502.896 C868.365332,503.525336 868.072001,504.111997 867.848,504.656 C867.623999,505.200003 867.512,505.663998 867.512,506.048 C867.512,506.581336 867.778664,506.848 868.312,506.848 C868.824003,506.848 869.517329,506.549336 870.392,505.952 C871.266671,505.354664 872.183995,504.565338 873.144,503.584 C873.549335,503.178665 873.959998,502.741336 874.376,502.272 C874.792002,501.802664 875.191998,501.338669 875.576,500.88 C875.960002,500.421331 876.311998,499.994669 876.632,499.6 C876.952002,499.205331 877.207999,498.880001 877.4,498.624 L877.624,498.752 C877.069331,499.49867 876.429337,500.325329 875.704,501.232 C874.978663,502.138671 874.104005,503.103995 873.08,504.128 C872.055995,505.152005 871.048005,505.98933 870.056,506.64 C869.063995,507.29067 868.077338,507.616 867.096,507.616 C866.41333,507.616 865.885335,507.440002 865.512,507.088 C865.138665,506.735998 864.952,506.304003 864.952,505.792 C864.952,505.621332 864.962667,505.461334 864.984,505.312 C865.005333,505.162666 865.037333,505.045334 865.08,504.96 L865.016,504.96 C864.354663,505.70667 863.608004,506.335997 862.776,506.848 C861.943996,507.360003 861.048005,507.616 860.088,507.616 C859.575997,507.616 859.138668,507.520001 858.776,507.328 C858.413332,507.135999 858.120001,506.874668 857.896,506.544 C857.671999,506.213332 857.506667,505.840002 857.4,505.424 C857.293333,505.007998 857.24,504.576002 857.24,504.128 C857.24,503.082661 857.527997,502.037339 858.104,500.992 C858.680003,499.946661 859.405329,499.002671 860.28,498.16 C861.154671,497.317329 862.130661,496.634669 863.208,496.112 C864.285339,495.589331 865.314662,495.328 866.296,495.328 C867.04267,495.328 867.629331,495.487998 868.056,495.808 C868.482669,496.128002 868.834665,496.62933 869.112,497.312 L869.912,496.032 Z M860.312,504.224 C860.312,504.84267 860.413332,505.381331 860.616,505.84 C860.818668,506.298669 861.250663,506.528 861.912,506.528 C862.360002,506.506667 862.829331,506.320002 863.32,505.968 C863.810669,505.615998 864.285331,505.173336 864.744,504.64 C865.202669,504.106664 865.639998,503.51467 866.056,502.864 C866.472002,502.21333 866.834665,501.557337 867.144,500.896 C867.453335,500.234663 867.698666,499.61067 867.88,499.024 C868.061334,498.43733 868.152,497.941335 868.152,497.536 C868.152,496.959997 868.045334,496.512002 867.832,496.192 C867.618666,495.871998 867.20267,495.712 866.584,495.712 C866.093331,495.712 865.597336,495.861332 865.096,496.16 C864.594664,496.458668 864.114669,496.853331 863.656,497.344 C863.197331,497.834669 862.760002,498.383997 862.344,498.992 C861.927998,499.600003 861.570668,500.223997 861.272,500.864 C860.973332,501.504003 860.738668,502.11733 860.568,502.704 C860.397332,503.29067 860.312,503.797331 860.312,504.224 Z M887.848,501.152 C888.253335,500.639997 888.733331,500.048003 889.288,499.376 C889.842669,498.703997 890.44533,498.069336 891.096,497.472 C891.74667,496.874664 892.42933,496.368002 893.144,495.952 C893.85867,495.535998 894.567996,495.328 895.272,495.328 C895.95467,495.328 896.503998,495.541331 896.92,495.968 C897.336002,496.394669 897.544,496.885331 897.544,497.44 C897.544,498.165337 897.309336,498.906663 896.84,499.664 C896.370664,500.421337 895.848003,501.17333 895.272,501.92 C894.695997,502.66667 894.173336,503.391996 893.704,504.096 C893.234664,504.800004 893,505.439997 893,506.016 C893,506.250668 893.053333,506.447999 893.16,506.608 C893.266667,506.768001 893.437332,506.848 893.672,506.848 C894.546671,506.848 895.97599,505.85601 897.96,503.872 C898.770671,503.061329 899.565329,502.202671 900.344,501.296 C901.122671,500.389329 901.799997,499.56267 902.376,498.816 L902.632,498.944 C902.375999,499.264002 902.082668,499.626665 901.752,500.032 C901.421332,500.437335 901.064002,500.869331 900.68,501.328 C900.295998,501.786669 899.885336,502.261331 899.448,502.752 C899.010664,503.242669 898.568002,503.711998 898.12,504.16 C897.522664,504.757336 896.978669,505.263998 896.488,505.68 C895.997331,506.096002 895.544002,506.431999 895.128,506.688 C894.711998,506.944001 894.317335,507.130666 893.944,507.248 C893.570665,507.365334 893.192002,507.424 892.808,507.424 C892.06133,507.424 891.480002,507.216002 891.064,506.8 C890.647998,506.383998 890.44,505.856003 890.44,505.216 C890.44,504.53333 890.674664,503.797337 891.144,503.008 C891.613336,502.218663 892.135997,501.45067 892.712,500.704 C893.288003,499.95733 893.810664,499.25867 894.28,498.608 C894.749336,497.95733 894.984,497.429335 894.984,497.024 C894.984,496.725332 894.898668,496.496001 894.728,496.336 C894.557332,496.175999 894.354668,496.096 894.12,496.096 C893.671998,496.096 893.15467,496.303998 892.568,496.72 C891.98133,497.136002 891.368003,497.674663 890.728,498.336 C890.087997,498.997337 889.453336,499.733329 888.824,500.544 C888.194664,501.354671 887.597336,502.165329 887.032,502.976 C886.466664,503.786671 885.965336,504.543996 885.528,505.248 C885.090664,505.952004 884.744001,506.527998 884.488,506.976 L881.096,507.104 C881.821337,505.951994 882.530663,504.858672 883.224,503.824 C883.917337,502.789328 884.535997,501.840004 885.08,500.976 C885.624003,500.111996 886.061332,499.349337 886.392,498.688 C886.722668,498.026663 886.888,497.504002 886.888,497.12 C886.888,496.863999 886.813334,496.629334 886.664,496.416 C886.514666,496.202666 886.280002,496.096 885.96,496.096 C885.511998,496.096 884.99467,496.303998 884.408,496.72 C883.82133,497.136002 883.208003,497.674663 882.568,498.336 C881.927997,498.997337 881.28267,499.733329 880.632,500.544 C879.98133,501.354671 879.368003,502.165329 878.792,502.976 C878.215997,503.786671 877.704002,504.543996 877.256,505.248 C876.807998,505.952004 876.456001,506.527998 876.2,506.976 L872.968,507.104 C874.141339,505.226657 875.303994,503.354676 876.456,501.488 C877.608006,499.621324 878.738661,497.717343 879.848,495.776 L883.592,495.584 L879.336,501.408 L879.4,501.472 C879.848002,500.959997 880.354664,500.352004 880.92,499.648 C881.485336,498.943996 882.098663,498.272003 882.76,497.632 C883.421337,496.991997 884.130663,496.448002 884.888,496 C885.645337,495.551998 886.450662,495.328 887.304,495.328 C887.901336,495.328 888.407998,495.487998 888.824,495.808 C889.240002,496.128002 889.448,496.607997 889.448,497.248 C889.448,497.546668 889.394667,497.866665 889.288,498.208 C889.181333,498.549335 889.048001,498.885332 888.888,499.216 C888.727999,499.546668 888.546668,499.877332 888.344,500.208 C888.141332,500.538668 887.954668,500.831999 887.784,501.088 L887.848,501.152 Z M912.952,501.152 C913.357335,500.639997 913.837331,500.048003 914.392,499.376 C914.946669,498.703997 915.54933,498.069336 916.2,497.472 C916.85067,496.874664 917.53333,496.368002 918.248,495.952 C918.96267,495.535998 919.671996,495.328 920.376,495.328 C921.05867,495.328 921.607998,495.541331 922.024,495.968 C922.440002,496.394669 922.648,496.885331 922.648,497.44 C922.648,498.165337 922.413336,498.906663 921.944,499.664 C921.474664,500.421337 920.952003,501.17333 920.376,501.92 C919.799997,502.66667 919.277336,503.391996 918.808,504.096 C918.338664,504.800004 918.104,505.439997 918.104,506.016 C918.104,506.250668 918.157333,506.447999 918.264,506.608 C918.370667,506.768001 918.541332,506.848 918.776,506.848 C919.650671,506.848 921.07999,505.85601 923.064,503.872 C923.874671,503.061329 924.669329,502.202671 925.448,501.296 C926.226671,500.389329 926.903997,499.56267 927.48,498.816 L927.736,498.944 C927.479999,499.264002 927.186668,499.626665 926.856,500.032 C926.525332,500.437335 926.168002,500.869331 925.784,501.328 C925.399998,501.786669 924.989336,502.261331 924.552,502.752 C924.114664,503.242669 923.672002,503.711998 923.224,504.16 C922.626664,504.757336 922.082669,505.263998 921.592,505.68 C921.101331,506.096002 920.648002,506.431999 920.232,506.688 C919.815998,506.944001 919.421335,507.130666 919.048,507.248 C918.674665,507.365334 918.296002,507.424 917.912,507.424 C917.16533,507.424 916.584002,507.216002 916.168,506.8 C915.751998,506.383998 915.544,505.856003 915.544,505.216 C915.544,504.53333 915.778664,503.797337 916.248,503.008 C916.717336,502.218663 917.239997,501.45067 917.816,500.704 C918.392003,499.95733 918.914664,499.25867 919.384,498.608 C919.853336,497.95733 920.088,497.429335 920.088,497.024 C920.088,496.725332 920.002668,496.496001 919.832,496.336 C919.661332,496.175999 919.458668,496.096 919.224,496.096 C918.775998,496.096 918.25867,496.303998 917.672,496.72 C917.08533,497.136002 916.472003,497.674663 915.832,498.336 C915.191997,498.997337 914.557336,499.733329 913.928,500.544 C913.298664,501.354671 912.701336,502.165329 912.136,502.976 C911.570664,503.786671 911.069336,504.543996 910.632,505.248 C910.194664,505.952004 909.848001,506.527998 909.592,506.976 L906.2,507.104 C906.925337,505.951994 907.634663,504.858672 908.328,503.824 C909.021337,502.789328 909.639997,501.840004 910.184,500.976 C910.728003,500.111996 911.165332,499.349337 911.496,498.688 C911.826668,498.026663 911.992,497.504002 911.992,497.12 C911.992,496.863999 911.917334,496.629334 911.768,496.416 C911.618666,496.202666 911.384002,496.096 911.064,496.096 C910.615998,496.096 910.09867,496.303998 909.512,496.72 C908.92533,497.136002 908.312003,497.674663 907.672,498.336 C907.031997,498.997337 906.38667,499.733329 905.736,500.544 C905.08533,501.354671 904.472003,502.165329 903.896,502.976 C903.319997,503.786671 902.808002,504.543996 902.36,505.248 C901.911998,505.952004 901.560001,506.527998 901.304,506.976 L898.072,507.104 C899.245339,505.226657 900.407994,503.354676 901.56,501.488 C902.712006,499.621324 903.842661,497.717343 904.952,495.776 L908.696,495.584 L904.44,501.408 L904.504,501.472 C904.952002,500.959997 905.458664,500.352004 906.024,499.648 C906.589336,498.943996 907.202663,498.272003 907.864,497.632 C908.525337,496.991997 909.234663,496.448002 909.992,496 C910.749337,495.551998 911.554662,495.328 912.408,495.328 C913.005336,495.328 913.511998,495.487998 913.928,495.808 C914.344002,496.128002 914.552,496.607997 914.552,497.248 C914.552,497.546668 914.498667,497.866665 914.392,498.208 C914.285333,498.549335 914.152001,498.885332 913.992,499.216 C913.831999,499.546668 913.650668,499.877332 913.448,500.208 C913.245332,500.538668 913.058668,500.831999 912.888,501.088 L912.952,501.152 Z M942.92,498.72 C942.258663,499.616004 941.549337,500.501329 940.792,501.376 C940.034663,502.250671 939.133339,503.167995 938.088,504.128 C936.615993,505.450673 935.202673,506.362664 933.848,506.864 C932.493327,507.365336 931.218673,507.616 930.024,507.616 C928.807994,507.616 927.848004,507.253337 927.144,506.528 C926.439996,505.802663 926.088,504.864006 926.088,503.712 C926.088,502.687995 926.39733,501.674672 927.016,500.672 C927.63467,499.669328 928.413329,498.773337 929.352,497.984 C930.290671,497.194663 931.319994,496.554669 932.44,496.064 C933.560006,495.573331 934.621328,495.328 935.624,495.328 C936.541338,495.328 937.255997,495.503998 937.768,495.856 C938.280003,496.208002 938.536,496.703997 938.536,497.344 C938.536,497.856003 938.360002,498.325331 938.008,498.752 C937.655998,499.178669 937.202669,499.562665 936.648,499.904 C936.093331,500.245335 935.469337,500.543999 934.776,500.8 C934.082663,501.056001 933.39467,501.279999 932.712,501.472 C932.02933,501.664001 931.389336,501.823999 930.792,501.952 C930.194664,502.080001 929.704002,502.186666 929.32,502.272 C929.213333,502.698669 929.16,503.082665 929.16,503.424 C929.16,504.341338 929.415997,505.087997 929.928,505.664 C930.440003,506.240003 931.154662,506.528 932.072,506.528 C932.968004,506.528 933.954661,506.261336 935.032,505.728 C936.109339,505.194664 937.191995,504.416005 938.28,503.392 C939.112004,502.602663 939.911996,501.776004 940.68,500.912 C941.448004,500.047996 942.119997,499.24267 942.696,498.496 L942.92,498.72 Z M935.976,496.544 C935.976,496.245332 935.896001,496.032001 935.736,495.904 C935.575999,495.775999 935.368001,495.712 935.112,495.712 C934.578664,495.712 934.00267,495.935998 933.384,496.384 C932.76533,496.832002 932.184003,497.38133 931.64,498.032 C931.095997,498.68267 930.616002,499.36533 930.2,500.08 C929.783998,500.79467 929.512001,501.418664 929.384,501.952 C930.258671,501.781332 931.090663,501.498669 931.88,501.104 C932.669337,500.709331 933.367997,500.261336 933.976,499.76 C934.584003,499.258664 935.069332,498.725336 935.432,498.16 C935.794668,497.594664 935.976,497.056003 935.976,496.544 Z" id="Your-Hebamme"></path>
        </g>
    </g>
</svg>